<svg width="361" height="343" viewBox="0 0 361 343" fill="none" xmlns="http://www.w3.org/2000/svg">
<rect x="111.603" y="124.926" width="35.9182" height="59.6168" rx="10.5544" stroke="#505050" stroke-width="0.541254"/>
<path d="M123.837 160.325L125.022 160.516L125.571 166.609C125.615 167.106 126.061 167.488 126.596 167.486H132.811C133.322 167.488 133.755 167.137 133.828 166.665L134.368 163.183C134.429 162.794 134.139 162.432 133.722 162.376C133.685 162.371 125.212 162.369 125.212 162.369" stroke="#34C759" stroke-width="0.81188" stroke-linecap="round" stroke-linejoin="round"/>
<path d="M130.318 164.332H131.897" stroke="#34C759" stroke-width="0.81188" stroke-linecap="round" stroke-linejoin="round"/>
<path fill-rule="evenodd" clip-rule="evenodd" d="M126.346 169.327C126.518 169.327 126.656 169.457 126.656 169.617C126.656 169.777 126.518 169.906 126.346 169.906C126.175 169.906 126.037 169.777 126.037 169.617C126.037 169.457 126.175 169.327 126.346 169.327Z" fill="#34C759" stroke="#34C759" stroke-width="0.81188" stroke-linecap="round" stroke-linejoin="round"/>
<path fill-rule="evenodd" clip-rule="evenodd" d="M132.772 169.327C132.944 169.327 133.083 169.457 133.083 169.617C133.083 169.777 132.944 169.906 132.772 169.906C132.601 169.906 132.463 169.777 132.463 169.617C132.463 169.457 132.601 169.327 132.772 169.327Z" fill="#34C759" stroke="#34C759" stroke-width="0.81188" stroke-linecap="round" stroke-linejoin="round"/>
<path d="M171.235 160.325L172.42 160.516L172.968 166.609C173.012 167.106 173.458 167.488 173.994 167.486H180.208C180.719 167.488 181.153 167.137 181.225 166.665L181.766 163.183C181.826 162.794 181.536 162.432 181.119 162.376C181.083 162.371 172.61 162.369 172.61 162.369" stroke="#34C759" stroke-width="0.81188" stroke-linecap="round" stroke-linejoin="round"/>
<path d="M177.714 164.332H179.294" stroke="#34C759" stroke-width="0.81188" stroke-linecap="round" stroke-linejoin="round"/>
<path fill-rule="evenodd" clip-rule="evenodd" d="M173.743 169.328C173.915 169.328 174.053 169.457 174.053 169.617C174.053 169.777 173.915 169.906 173.743 169.906C173.572 169.906 173.433 169.777 173.433 169.617C173.433 169.457 173.572 169.328 173.743 169.328Z" fill="#34C759" stroke="#34C759" stroke-width="0.81188" stroke-linecap="round" stroke-linejoin="round"/>
<path fill-rule="evenodd" clip-rule="evenodd" d="M180.17 169.327C180.341 169.327 180.48 169.457 180.48 169.617C180.48 169.777 180.341 169.906 180.17 169.906C179.998 169.906 179.86 169.777 179.86 169.617C179.86 169.457 179.998 169.327 180.17 169.327Z" fill="#34C759" stroke="#34C759" stroke-width="0.81188" stroke-linecap="round" stroke-linejoin="round"/>
<path d="M219.543 160.325L220.728 160.516L221.277 166.609C221.321 167.106 221.767 167.488 222.302 167.486H228.517C229.028 167.488 229.461 167.137 229.534 166.665L230.074 163.183C230.135 162.794 229.845 162.432 229.428 162.376C229.391 162.371 220.918 162.369 220.918 162.369" stroke="#34C759" stroke-width="0.81188" stroke-linecap="round" stroke-linejoin="round"/>
<path d="M226.023 164.332H227.603" stroke="#34C759" stroke-width="0.81188" stroke-linecap="round" stroke-linejoin="round"/>
<path fill-rule="evenodd" clip-rule="evenodd" d="M222.052 169.327C222.224 169.327 222.362 169.457 222.362 169.617C222.362 169.777 222.224 169.906 222.052 169.906C221.881 169.906 221.742 169.777 221.742 169.617C221.742 169.457 221.881 169.327 222.052 169.327Z" fill="#34C759" stroke="#34C759" stroke-width="0.81188" stroke-linecap="round" stroke-linejoin="round"/>
<path fill-rule="evenodd" clip-rule="evenodd" d="M228.479 169.327C228.65 169.327 228.789 169.457 228.789 169.617C228.789 169.777 228.65 169.906 228.479 169.906C228.307 169.906 228.169 169.777 228.169 169.617C228.169 169.457 228.307 169.327 228.479 169.327Z" fill="#34C759" stroke="#34C759" stroke-width="0.81188" stroke-linecap="round" stroke-linejoin="round"/>
<rect x="159.001" y="124.926" width="35.9182" height="59.6168" rx="10.5544" stroke="#505050" stroke-width="0.541254"/>
<rect x="206.398" y="124.926" width="35.9182" height="59.6168" rx="10.5544" stroke="#505050" stroke-width="0.541254"/>
<rect x="206.398" y="124.926" width="35.9182" height="59.6168" rx="10.5544" stroke="#505050" stroke-width="0.541254"/>
<rect x="63.2948" y="124.926" width="35.9182" height="59.6168" rx="10.5544" fill="#7D7D7D" stroke="#505050" stroke-width="0.541254"/>
<rect x="15.8973" y="124.926" width="35.9182" height="59.6168" rx="10.5544" fill="#7D7D7D" stroke="#505050" stroke-width="0.541254"/>
<path d="M27.8421 143.77V136.192H34.218V143.77H33.4278V136.668L33.6335 136.885H28.4266L28.6323 136.668V143.77H27.8421ZM36.5908 143.77V138.087H37.3594V140.598H40.9425V138.087H41.7111V143.77H40.9425V141.258H37.3594V143.77H36.5908Z" fill="white"/>
<path d="M76.1506 143.77V136.192H79.3007C80.1018 136.192 80.7297 136.358 81.1843 136.69C81.6462 137.015 81.8771 137.495 81.8771 138.13C81.8771 138.758 81.657 139.234 81.2168 139.559C80.7766 139.876 80.1992 140.035 79.4848 140.035L79.6688 139.764C80.5132 139.764 81.1554 139.93 81.5957 140.262C82.0359 140.594 82.256 141.082 82.256 141.724C82.256 142.373 82.0251 142.878 81.5632 143.239C81.1085 143.593 80.4229 143.77 79.5064 143.77H76.1506ZM76.9409 143.131H79.5064C80.1487 143.131 80.6358 143.012 80.9678 142.774C81.2998 142.536 81.4658 142.168 81.4658 141.67C81.4658 141.179 81.2998 140.818 80.9678 140.587C80.6358 140.356 80.1487 140.241 79.5064 140.241H76.9409V143.131ZM76.9409 139.624H79.2574C79.842 139.624 80.2894 139.508 80.5998 139.277C80.9173 139.039 81.0761 138.689 81.0761 138.227C81.0761 137.765 80.9173 137.419 80.5998 137.188C80.2894 136.95 79.842 136.831 79.2574 136.831H76.9409V139.624ZM85.1574 143.77V138.552L85.3522 138.758H83.0032V138.087H88.0801V138.758H85.7311L85.9259 138.552V143.77H85.1574Z" fill="white"/>
<path d="M29.2642 175.026V166.452L29.8228 167.063H27.2118V165.933H30.5502V175.026H29.2642ZM32.4093 172.792V171.882L37.0598 165.933H38.4627L33.8512 171.882L33.1887 171.674H40.4502V172.792H32.4093ZM37.4625 175.026V172.792L37.5014 171.674V169.7H38.7225V175.026H37.4625Z" fill="white"/>
<path d="M77.7323 175.026V166.452L78.2909 167.063H75.6799V165.933H79.0183V175.026H77.7323ZM83.9431 175.13C83.3022 175.13 82.6787 175.03 82.0725 174.831C81.475 174.632 80.9857 174.363 80.6046 174.026L81.2022 172.999C81.5053 173.285 81.8993 173.519 82.3843 173.701C82.8692 173.883 83.3845 173.974 83.9301 173.974C84.6229 173.974 85.1555 173.826 85.5279 173.532C85.9002 173.238 86.0864 172.843 86.0864 172.35C86.0864 172.012 86.0042 171.718 85.8396 171.467C85.6751 171.215 85.3893 171.025 84.9823 170.895C84.5839 170.756 84.034 170.687 83.3325 170.687H81.2671L81.7477 165.933H86.8788V167.063H82.2284L82.9039 166.426L82.5272 170.181L81.8517 169.557H83.6053C84.5146 169.557 85.2464 169.674 85.8007 169.908C86.3549 170.142 86.7576 170.466 87.0087 170.882C87.2599 171.289 87.3854 171.761 87.3854 172.298C87.3854 172.818 87.2599 173.294 87.0087 173.727C86.7576 174.151 86.3765 174.493 85.8656 174.753C85.3633 175.004 84.7225 175.13 83.9431 175.13Z" fill="white"/>
<path d="M125.306 149.504V140.931L125.865 141.541H123.254V140.411H126.592V149.504H125.306ZM132.401 149.608C131.595 149.608 130.907 149.431 130.335 149.076C129.764 148.72 129.326 148.21 129.023 147.543C128.729 146.867 128.581 146.045 128.581 145.075C128.581 144.044 128.763 143.174 129.127 142.464C129.491 141.753 129.997 141.217 130.647 140.853C131.296 140.489 132.041 140.307 132.881 140.307C133.314 140.307 133.726 140.351 134.115 140.437C134.514 140.524 134.856 140.658 135.141 140.84L134.648 141.853C134.414 141.689 134.146 141.576 133.842 141.515C133.548 141.455 133.236 141.424 132.907 141.424C131.981 141.424 131.244 141.714 130.699 142.295C130.153 142.866 129.88 143.719 129.88 144.854C129.88 145.036 129.889 145.252 129.906 145.503C129.924 145.754 129.967 146.001 130.036 146.244L129.595 145.802C129.725 145.404 129.928 145.07 130.205 144.802C130.491 144.525 130.829 144.321 131.218 144.191C131.617 144.053 132.045 143.983 132.504 143.983C133.111 143.983 133.648 144.096 134.115 144.321C134.583 144.546 134.951 144.867 135.219 145.282C135.488 145.689 135.622 146.174 135.622 146.737C135.622 147.318 135.479 147.824 135.193 148.257C134.908 148.69 134.522 149.024 134.037 149.257C133.552 149.491 133.007 149.608 132.401 149.608ZM132.349 148.556C132.747 148.556 133.093 148.482 133.388 148.335C133.691 148.188 133.929 147.984 134.102 147.725C134.275 147.456 134.362 147.144 134.362 146.789C134.362 146.252 134.176 145.828 133.803 145.516C133.431 145.196 132.924 145.036 132.284 145.036C131.868 145.036 131.504 145.114 131.192 145.269C130.881 145.425 130.634 145.637 130.452 145.906C130.279 146.166 130.192 146.465 130.192 146.802C130.192 147.114 130.274 147.404 130.439 147.673C130.604 147.932 130.846 148.145 131.166 148.309C131.487 148.474 131.881 148.556 132.349 148.556Z" fill="#6A6A6A"/>
<path d="M172.375 149.504V140.931L172.933 141.541H170.322V140.411H173.661V149.504H172.375ZM177.222 149.504L181.08 140.957L181.417 141.541H176.013L176.663 140.905V143.165H175.416V140.411H182.275V141.294L178.599 149.504H177.222Z" fill="#6A6A6A"/>
<path d="M220.841 149.504V140.931L221.4 141.541H218.789V140.411H222.127V149.504H220.841ZM227.662 149.608C226.926 149.608 226.29 149.5 225.753 149.283C225.216 149.067 224.8 148.759 224.506 148.361C224.211 147.954 224.064 147.478 224.064 146.932C224.064 146.395 224.203 145.941 224.48 145.568C224.765 145.187 225.177 144.901 225.714 144.711C226.251 144.512 226.9 144.412 227.662 144.412C228.424 144.412 229.074 144.512 229.611 144.711C230.156 144.901 230.572 145.187 230.858 145.568C231.144 145.949 231.287 146.404 231.287 146.932C231.287 147.478 231.139 147.954 230.845 148.361C230.55 148.759 230.13 149.067 229.585 149.283C229.039 149.5 228.398 149.608 227.662 149.608ZM227.662 148.556C228.39 148.556 228.957 148.409 229.364 148.114C229.78 147.811 229.988 147.404 229.988 146.893C229.988 146.391 229.78 145.997 229.364 145.711C228.957 145.417 228.39 145.269 227.662 145.269C226.943 145.269 226.381 145.417 225.974 145.711C225.567 145.997 225.363 146.391 225.363 146.893C225.363 147.404 225.567 147.811 225.974 148.114C226.381 148.409 226.943 148.556 227.662 148.556ZM227.662 145.114C226.969 145.114 226.381 145.023 225.896 144.841C225.411 144.65 225.038 144.382 224.778 144.035C224.519 143.68 224.389 143.26 224.389 142.775C224.389 142.264 224.523 141.827 224.791 141.463C225.069 141.091 225.454 140.805 225.948 140.606C226.441 140.407 227.013 140.307 227.662 140.307C228.32 140.307 228.896 140.407 229.39 140.606C229.884 140.805 230.269 141.091 230.546 141.463C230.823 141.827 230.962 142.264 230.962 142.775C230.962 143.26 230.832 143.68 230.572 144.035C230.312 144.382 229.936 144.65 229.442 144.841C228.948 145.023 228.355 145.114 227.662 145.114ZM227.662 144.282C228.294 144.282 228.788 144.152 229.143 143.892C229.507 143.633 229.689 143.278 229.689 142.827C229.689 142.368 229.503 142.009 229.13 141.749C228.758 141.489 228.268 141.359 227.662 141.359C227.056 141.359 226.571 141.489 226.207 141.749C225.852 142.009 225.675 142.368 225.675 142.827C225.675 143.278 225.848 143.633 226.194 143.892C226.549 144.152 227.039 144.282 227.662 144.282Z" fill="#6A6A6A"/>
<path d="M33.8564 149.265V160.203" stroke="#34C759" stroke-width="0.541254"/>
<line x1="81.5243" y1="149.265" x2="81.5243" y2="160.203" stroke="#34C759" stroke-width="0.541254"/>
<rect x="15.766" y="192.759" width="35.8303" height="58.9967" rx="10.5544" stroke="#505050" stroke-width="0.541254"/>
<path d="M28.4241 227.569L29.6061 227.764L30.1534 233.966C30.1972 234.472 30.6422 234.861 31.1764 234.859H37.376C37.8858 234.86 38.3183 234.504 38.3905 234.024L38.9298 230.478C38.99 230.082 38.7007 229.715 38.2847 229.657C38.2484 229.652 29.796 229.65 29.796 229.65" stroke="#34C759" stroke-width="0.81188" stroke-linecap="round" stroke-linejoin="round"/>
<path d="M34.8884 231.648H36.464" stroke="#34C759" stroke-width="0.81188" stroke-linecap="round" stroke-linejoin="round"/>
<path fill-rule="evenodd" clip-rule="evenodd" d="M30.9268 236.733C31.0978 236.733 31.2359 236.865 31.2359 237.028C31.2359 237.191 31.0978 237.323 30.9268 237.323C30.7557 237.323 30.6177 237.191 30.6177 237.028C30.6177 236.865 30.7557 236.733 30.9268 236.733Z" fill="#34C759" stroke="#34C759" stroke-width="0.81188" stroke-linecap="round" stroke-linejoin="round"/>
<path fill-rule="evenodd" clip-rule="evenodd" d="M37.3377 236.733C37.5087 236.733 37.6473 236.865 37.6473 237.028C37.6473 237.191 37.5087 237.323 37.3377 237.323C37.1666 237.323 37.0286 237.191 37.0286 237.028C37.0286 236.865 37.1666 236.733 37.3377 236.733Z" fill="#34C759" stroke="#34C759" stroke-width="0.81188" stroke-linecap="round" stroke-linejoin="round"/>
<path d="M29.7829 217.396V208.822L30.3415 209.433H27.7305V208.303H31.0689V217.396H29.7829ZM36.0067 208.199C36.8294 208.199 37.5222 208.376 38.0851 208.731C38.6567 209.086 39.0897 209.602 39.3841 210.277C39.6786 210.944 39.8258 211.762 39.8258 212.732C39.8258 213.763 39.6439 214.633 39.2802 215.343C38.9165 216.053 38.4142 216.59 37.7733 216.954C37.1325 217.318 36.3834 217.5 35.5261 217.5C35.1017 217.5 34.6904 217.456 34.292 217.37C33.9023 217.283 33.5602 217.149 33.2658 216.967L33.7594 215.954C34.0019 216.11 34.2703 216.222 34.5648 216.292C34.8679 216.352 35.184 216.382 35.5131 216.382C36.431 216.382 37.1628 216.097 37.7084 215.525C38.254 214.945 38.5268 214.088 38.5268 212.953C38.5268 212.771 38.5181 212.555 38.5008 212.304C38.4835 212.052 38.4445 211.806 38.3839 211.563L38.8125 212.005C38.6913 212.403 38.4878 212.741 38.202 213.018C37.9249 213.286 37.5871 213.49 37.1888 213.629C36.7991 213.758 36.3704 213.823 35.9028 213.823C35.3052 213.823 34.7726 213.711 34.305 213.486C33.8373 213.26 33.4693 212.944 33.2008 212.537C32.9324 212.122 32.7981 211.632 32.7981 211.069C32.7981 210.481 32.9367 209.974 33.2138 209.55C33.4996 209.117 33.885 208.783 34.3699 208.549C34.8636 208.316 35.4091 208.199 36.0067 208.199ZM36.0586 209.251C35.6689 209.251 35.3225 209.324 35.0194 209.472C34.7163 209.619 34.4782 209.822 34.305 210.082C34.1404 210.342 34.0582 210.654 34.0582 211.018C34.0582 211.554 34.2444 211.983 34.6167 212.304C34.9891 212.615 35.4914 212.771 36.1236 212.771C36.5393 212.771 36.903 212.693 37.2148 212.537C37.5352 212.381 37.782 212.169 37.9552 211.901C38.1371 211.632 38.228 211.334 38.228 211.005C38.228 210.684 38.1457 210.394 37.9812 210.134C37.8166 209.874 37.5742 209.662 37.2537 209.498C36.9333 209.333 36.535 209.251 36.0586 209.251Z" fill="#6A6A6A"/>
<rect x="63.5035" y="192.759" width="35.8303" height="58.9967" rx="10.5544" stroke="#505050" stroke-width="0.541254"/>
<path d="M76.1628 227.569L77.3449 227.763L77.8922 233.966C77.936 234.472 78.3809 234.861 78.9151 234.859H85.1148C85.6246 234.86 86.057 234.504 86.1292 234.023L86.6685 230.478C86.7288 230.082 86.4395 229.714 86.0235 229.657C85.9871 229.652 77.5347 229.65 77.5347 229.65" stroke="#34C759" stroke-width="0.81188" stroke-linecap="round" stroke-linejoin="round"/>
<path d="M82.6267 231.648H84.2023" stroke="#34C759" stroke-width="0.81188" stroke-linecap="round" stroke-linejoin="round"/>
<path fill-rule="evenodd" clip-rule="evenodd" d="M78.6653 236.733C78.8363 236.733 78.9744 236.865 78.9744 237.028C78.9744 237.191 78.8363 237.323 78.6653 237.323C78.4943 237.323 78.3562 237.191 78.3562 237.028C78.3562 236.865 78.4943 236.733 78.6653 236.733Z" fill="#34C759" stroke="#34C759" stroke-width="0.81188" stroke-linecap="round" stroke-linejoin="round"/>
<path fill-rule="evenodd" clip-rule="evenodd" d="M85.0764 236.733C85.2474 236.733 85.3861 236.865 85.3861 237.028C85.3861 237.191 85.2474 237.323 85.0764 237.323C84.9054 237.323 84.7673 237.191 84.7673 237.028C84.7673 236.865 84.9054 236.733 85.0764 236.733Z" fill="#34C759" stroke="#34C759" stroke-width="0.81188" stroke-linecap="round" stroke-linejoin="round"/>
<path d="M73.9329 217.396V216.512L77.6351 212.94C77.9642 212.628 78.2067 212.356 78.3625 212.122C78.5271 211.879 78.6353 211.658 78.6873 211.459C78.7479 211.251 78.7782 211.052 78.7782 210.862C78.7782 210.394 78.6137 210.026 78.2846 209.757C77.9555 209.489 77.4749 209.355 76.8427 209.355C76.3577 209.355 75.9204 209.437 75.5307 209.602C75.141 209.757 74.8033 210.004 74.5175 210.342L73.6342 209.576C73.9806 209.134 74.4439 208.796 75.0241 208.562C75.613 208.32 76.2582 208.199 76.9596 208.199C77.5918 208.199 78.1417 208.303 78.6094 208.51C79.077 208.71 79.4364 209 79.6875 209.381C79.9473 209.762 80.0772 210.212 80.0772 210.732C80.0772 211.026 80.0383 211.316 79.9603 211.602C79.8824 211.888 79.7352 212.191 79.5187 212.511C79.3022 212.832 78.9904 213.191 78.5834 213.59L75.2839 216.772L74.9721 216.266H80.4669V217.396H73.9329ZM85.2374 217.5C84.5273 217.5 83.8908 217.318 83.3279 216.954C82.7737 216.59 82.332 216.062 82.0029 215.369C81.6825 214.676 81.5223 213.836 81.5223 212.849C81.5223 211.862 81.6825 211.022 82.0029 210.329C82.332 209.636 82.7737 209.108 83.3279 208.744C83.8908 208.381 84.5273 208.199 85.2374 208.199C85.9389 208.199 86.5711 208.381 87.134 208.744C87.6969 209.108 88.1386 209.636 88.459 210.329C88.7794 211.022 88.9396 211.862 88.9396 212.849C88.9396 213.836 88.7794 214.676 88.459 215.369C88.1386 216.062 87.6969 216.59 87.134 216.954C86.5711 217.318 85.9389 217.5 85.2374 217.5ZM85.2374 216.343C85.7138 216.343 86.1294 216.214 86.4845 215.954C86.8482 215.694 87.1297 215.304 87.3289 214.785C87.5367 214.265 87.6406 213.62 87.6406 212.849C87.6406 212.078 87.5367 211.433 87.3289 210.914C87.1297 210.394 86.8482 210.004 86.4845 209.744C86.1294 209.485 85.7138 209.355 85.2374 209.355C84.7611 209.355 84.3411 209.485 83.9774 209.744C83.6137 210.004 83.3279 210.394 83.1201 210.914C82.9209 211.433 82.8213 212.078 82.8213 212.849C82.8213 213.62 82.9209 214.265 83.1201 214.785C83.3279 215.304 83.6137 215.694 83.9774 215.954C84.3411 216.214 84.7611 216.343 85.2374 216.343Z" fill="#6A6A6A"/>
<rect x="111.241" y="192.759" width="35.8303" height="58.9967" rx="10.5544" stroke="#505050" stroke-width="0.541254"/>
<path d="M123.899 227.569L125.081 227.764L125.629 233.966C125.673 234.472 126.118 234.861 126.652 234.859H132.851C133.361 234.86 133.794 234.504 133.866 234.024L134.405 230.478C134.465 230.082 134.176 229.715 133.76 229.657C133.724 229.652 125.271 229.65 125.271 229.65" stroke="#34C759" stroke-width="0.81188" stroke-linecap="round" stroke-linejoin="round"/>
<path d="M130.364 231.648H131.939" stroke="#34C759" stroke-width="0.81188" stroke-linecap="round" stroke-linejoin="round"/>
<path fill-rule="evenodd" clip-rule="evenodd" d="M126.402 236.733C126.573 236.733 126.711 236.865 126.711 237.028C126.711 237.191 126.573 237.323 126.402 237.323C126.231 237.323 126.093 237.191 126.093 237.028C126.093 236.865 126.231 236.733 126.402 236.733Z" fill="#34C759" stroke="#34C759" stroke-width="0.81188" stroke-linecap="round" stroke-linejoin="round"/>
<path fill-rule="evenodd" clip-rule="evenodd" d="M132.813 236.733C132.984 236.733 133.122 236.865 133.122 237.028C133.122 237.191 132.984 237.323 132.813 237.323C132.642 237.323 132.504 237.191 132.504 237.028C132.504 236.865 132.642 236.733 132.813 236.733Z" fill="#34C759" stroke="#34C759" stroke-width="0.81188" stroke-linecap="round" stroke-linejoin="round"/>
<path d="M123.951 217.396V216.512L127.654 212.94C127.983 212.628 128.225 212.356 128.381 212.122C128.546 211.879 128.654 211.658 128.706 211.459C128.766 211.251 128.797 211.052 128.797 210.862C128.797 210.394 128.632 210.026 128.303 209.757C127.974 209.489 127.493 209.355 126.861 209.355C126.376 209.355 125.939 209.437 125.549 209.602C125.16 209.757 124.822 210.004 124.536 210.342L123.653 209.576C123.999 209.134 124.462 208.796 125.043 208.562C125.632 208.32 126.277 208.199 126.978 208.199C127.61 208.199 128.16 208.303 128.628 208.51C129.096 208.71 129.455 209 129.706 209.381C129.966 209.762 130.096 210.212 130.096 210.732C130.096 211.026 130.057 211.316 129.979 211.602C129.901 211.888 129.754 212.191 129.537 212.511C129.321 212.832 129.009 213.191 128.602 213.59L125.302 216.772L124.991 216.266H130.485V217.396H123.951ZM133.086 217.396V208.822L133.645 209.433H131.034V208.303H134.372V217.396H133.086Z" fill="#6A6A6A"/>
<rect x="158.979" y="192.759" width="35.8303" height="58.9967" rx="10.5544" stroke="#505050" stroke-width="0.541254"/>
<path d="M171.637 227.569L172.819 227.763L173.366 233.966C173.41 234.472 173.855 234.861 174.389 234.859H180.589C181.098 234.86 181.531 234.503 181.603 234.023L182.142 230.478C182.203 230.082 181.913 229.714 181.497 229.657C181.461 229.652 173.009 229.649 173.009 229.649" stroke="#34C759" stroke-width="0.81188" stroke-linecap="round" stroke-linejoin="round"/>
<path d="M178.101 231.648H179.677" stroke="#34C759" stroke-width="0.81188" stroke-linecap="round" stroke-linejoin="round"/>
<path fill-rule="evenodd" clip-rule="evenodd" d="M174.139 236.733C174.31 236.733 174.448 236.865 174.448 237.028C174.448 237.191 174.31 237.323 174.139 237.323C173.968 237.323 173.83 237.191 173.83 237.028C173.83 236.865 173.968 236.733 174.139 236.733Z" fill="#34C759" stroke="#34C759" stroke-width="0.81188" stroke-linecap="round" stroke-linejoin="round"/>
<path fill-rule="evenodd" clip-rule="evenodd" d="M180.55 236.733C180.721 236.733 180.859 236.865 180.859 237.028C180.859 237.191 180.721 237.323 180.55 237.323C180.379 237.323 180.241 237.191 180.241 237.028C180.241 236.865 180.379 236.733 180.55 236.733Z" fill="#34C759" stroke="#34C759" stroke-width="0.81188" stroke-linecap="round" stroke-linejoin="round"/>
<path d="M170.094 217.396V216.512L173.796 212.94C174.125 212.628 174.368 212.356 174.524 212.122C174.688 211.879 174.796 211.658 174.848 211.459C174.909 211.251 174.939 211.052 174.939 210.862C174.939 210.394 174.775 210.026 174.446 209.757C174.117 209.489 173.636 209.355 173.004 209.355C172.519 209.355 172.082 209.437 171.692 209.602C171.302 209.757 170.964 210.004 170.679 210.342L169.795 209.576C170.142 209.134 170.605 208.796 171.185 208.562C171.774 208.32 172.419 208.199 173.121 208.199C173.753 208.199 174.303 208.303 174.771 208.51C175.238 208.71 175.598 209 175.849 209.381C176.108 209.762 176.238 210.212 176.238 210.732C176.238 211.026 176.199 211.316 176.121 211.602C176.044 211.888 175.896 212.191 175.68 212.511C175.463 212.832 175.152 213.191 174.745 213.59L171.445 216.772L171.133 216.266H176.628V217.396H170.094ZM177.553 217.396V216.512L181.255 212.94C181.584 212.628 181.827 212.356 181.983 212.122C182.147 211.879 182.256 211.658 182.308 211.459C182.368 211.251 182.399 211.052 182.399 210.862C182.399 210.394 182.234 210.026 181.905 209.757C181.576 209.489 181.095 209.355 180.463 209.355C179.978 209.355 179.541 209.437 179.151 209.602C178.761 209.757 178.424 210.004 178.138 210.342L177.254 209.576C177.601 209.134 178.064 208.796 178.644 208.562C179.233 208.32 179.878 208.199 180.58 208.199C181.212 208.199 181.762 208.303 182.23 208.51C182.697 208.71 183.057 209 183.308 209.381C183.568 209.762 183.698 210.212 183.698 210.732C183.698 211.026 183.659 211.316 183.581 211.602C183.503 211.888 183.355 212.191 183.139 212.511C182.922 212.832 182.611 213.191 182.204 213.59L178.904 216.772L178.592 216.266H184.087V217.396H177.553Z" fill="#6A6A6A"/>
<rect x="206.717" y="192.759" width="35.8303" height="58.9967" rx="10.5544" stroke="#505050" stroke-width="0.541254"/>
<path d="M219.375 227.569L220.557 227.763L221.104 233.966C221.148 234.472 221.593 234.861 222.127 234.859H228.327C228.836 234.86 229.269 234.504 229.341 234.023L229.88 230.478C229.941 230.082 229.651 229.714 229.235 229.657C229.199 229.652 220.747 229.65 220.747 229.65" stroke="#34C759" stroke-width="0.81188" stroke-linecap="round" stroke-linejoin="round"/>
<path d="M225.84 231.648H227.415" stroke="#34C759" stroke-width="0.81188" stroke-linecap="round" stroke-linejoin="round"/>
<path fill-rule="evenodd" clip-rule="evenodd" d="M221.878 236.733C222.049 236.733 222.187 236.865 222.187 237.028C222.187 237.191 222.049 237.323 221.878 237.323C221.707 237.323 221.569 237.191 221.569 237.028C221.569 236.865 221.707 236.733 221.878 236.733Z" fill="#34C759" stroke="#34C759" stroke-width="0.81188" stroke-linecap="round" stroke-linejoin="round"/>
<path fill-rule="evenodd" clip-rule="evenodd" d="M228.288 236.733C228.459 236.733 228.598 236.865 228.598 237.028C228.598 237.191 228.459 237.323 228.288 237.323C228.117 237.323 227.979 237.191 227.979 237.028C227.979 236.865 228.117 236.733 228.288 236.733Z" fill="#34C759" stroke="#34C759" stroke-width="0.81188" stroke-linecap="round" stroke-linejoin="round"/>
<path d="M217.844 217.396V216.512L221.546 212.94C221.876 212.628 222.118 212.356 222.274 212.122C222.438 211.879 222.547 211.658 222.599 211.459C222.659 211.251 222.69 211.052 222.69 210.862C222.69 210.394 222.525 210.026 222.196 209.757C221.867 209.489 221.386 209.355 220.754 209.355C220.269 209.355 219.832 209.437 219.442 209.602C219.052 209.757 218.715 210.004 218.429 210.342L217.546 209.576C217.892 209.134 218.355 208.796 218.935 208.562C219.524 208.32 220.17 208.199 220.871 208.199C221.503 208.199 222.053 208.303 222.521 208.51C222.988 208.71 223.348 209 223.599 209.381C223.859 209.762 223.989 210.212 223.989 210.732C223.989 211.026 223.95 211.316 223.872 211.602C223.794 211.888 223.647 212.191 223.43 212.511C223.214 212.832 222.902 213.191 222.495 213.59L219.195 216.772L218.884 216.266H224.378V217.396H217.844ZM228.226 217.5C227.585 217.5 226.962 217.4 226.356 217.201C225.758 217.002 225.269 216.733 224.888 216.395L225.485 215.369C225.788 215.655 226.182 215.889 226.667 216.071C227.152 216.253 227.672 216.343 228.226 216.343C228.902 216.343 229.426 216.201 229.798 215.915C230.179 215.62 230.37 215.226 230.37 214.733C230.37 214.256 230.188 213.875 229.824 213.59C229.469 213.295 228.902 213.148 228.122 213.148H227.395V212.239L230.097 208.913L230.279 209.433H225.303V208.303H231.305V209.186L228.616 212.498L227.94 212.096H228.369C229.469 212.096 230.292 212.343 230.837 212.836C231.391 213.33 231.669 213.958 231.669 214.72C231.669 215.231 231.543 215.698 231.292 216.123C231.041 216.547 230.66 216.885 230.149 217.136C229.646 217.378 229.006 217.5 228.226 217.5Z" fill="#6A6A6A"/>
<rect x="15.766" y="260.415" width="35.8303" height="58.9967" rx="10.5544" stroke="#505050" stroke-width="0.541254"/>
<path d="M28.4241 295.143L29.6061 295.337L30.1534 301.539C30.1972 302.046 30.6422 302.435 31.1764 302.433H37.376C37.8858 302.434 38.3183 302.077 38.3905 301.597L38.9298 298.052C38.99 297.656 38.7007 297.288 38.2847 297.231C38.2484 297.226 29.796 297.223 29.796 297.223" stroke="#34C759" stroke-width="0.81188" stroke-linecap="round" stroke-linejoin="round"/>
<path d="M34.8884 299.222H36.464" stroke="#34C759" stroke-width="0.81188" stroke-linecap="round" stroke-linejoin="round"/>
<path fill-rule="evenodd" clip-rule="evenodd" d="M30.9268 304.307C31.0978 304.307 31.2359 304.439 31.2359 304.601C31.2359 304.764 31.0978 304.896 30.9268 304.896C30.7557 304.896 30.6177 304.764 30.6177 304.601C30.6177 304.439 30.7557 304.307 30.9268 304.307Z" fill="#34C759" stroke="#34C759" stroke-width="0.81188" stroke-linecap="round" stroke-linejoin="round"/>
<path fill-rule="evenodd" clip-rule="evenodd" d="M37.3377 304.307C37.5087 304.307 37.6473 304.439 37.6473 304.601C37.6473 304.764 37.5087 304.896 37.3377 304.896C37.1666 304.896 37.0286 304.764 37.0286 304.601C37.0286 304.439 37.1666 304.307 37.3377 304.307Z" fill="#34C759" stroke="#34C759" stroke-width="0.81188" stroke-linecap="round" stroke-linejoin="round"/>
<path d="M26.303 285.052V284.169L30.0051 280.597C30.3342 280.285 30.5767 280.012 30.7326 279.778C30.8971 279.536 31.0054 279.315 31.0573 279.116C31.118 278.908 31.1483 278.709 31.1483 278.518C31.1483 278.051 30.9837 277.683 30.6546 277.414C30.3256 277.146 29.8449 277.011 29.2127 277.011C28.7278 277.011 28.2904 277.094 27.9007 277.258C27.511 277.414 27.1733 277.661 26.8875 277.999L26.0042 277.232C26.3506 276.791 26.8139 276.453 27.3941 276.219C27.983 275.977 28.6282 275.855 29.3297 275.855C29.9618 275.855 30.5117 275.959 30.9794 276.167C31.447 276.366 31.8064 276.656 32.0576 277.037C32.3174 277.418 32.4473 277.869 32.4473 278.388C32.4473 278.683 32.4083 278.973 32.3304 279.259C32.2524 279.544 32.1052 279.848 31.8887 280.168C31.6722 280.488 31.3604 280.848 30.9534 281.246L27.6539 284.429L27.3422 283.922H32.837V285.052H26.303ZM33.5214 282.818V281.909L38.1718 275.959H39.5748L34.9633 281.909L34.3008 281.701H41.5623V282.818H33.5214ZM38.5745 285.052V282.818L38.6135 281.701V279.726H39.8346V285.052H38.5745Z" fill="#6A6A6A"/>
<rect x="63.5035" y="260.415" width="35.8303" height="58.9967" rx="10.5544" stroke="#505050" stroke-width="0.541254"/>
<path d="M76.1628 295.143L77.3449 295.337L77.8922 301.539C77.936 302.046 78.3809 302.435 78.9151 302.433H85.1148C85.6246 302.434 86.057 302.077 86.1292 301.597L86.6685 298.052C86.7288 297.656 86.4395 297.288 86.0235 297.231C85.9871 297.226 77.5347 297.223 77.5347 297.223" stroke="#34C759" stroke-width="0.81188" stroke-linecap="round" stroke-linejoin="round"/>
<path d="M82.6267 299.222H84.2023" stroke="#34C759" stroke-width="0.81188" stroke-linecap="round" stroke-linejoin="round"/>
<path fill-rule="evenodd" clip-rule="evenodd" d="M78.6653 304.307C78.8363 304.307 78.9744 304.439 78.9744 304.601C78.9744 304.764 78.8363 304.896 78.6653 304.896C78.4943 304.896 78.3562 304.764 78.3562 304.601C78.3562 304.439 78.4943 304.307 78.6653 304.307Z" fill="#34C759" stroke="#34C759" stroke-width="0.81188" stroke-linecap="round" stroke-linejoin="round"/>
<path fill-rule="evenodd" clip-rule="evenodd" d="M85.0764 304.307C85.2474 304.307 85.3861 304.439 85.3861 304.601C85.3861 304.764 85.2474 304.896 85.0764 304.896C84.9054 304.896 84.7673 304.764 84.7673 304.601C84.7673 304.439 84.9054 304.307 85.0764 304.307Z" fill="#34C759" stroke="#34C759" stroke-width="0.81188" stroke-linecap="round" stroke-linejoin="round"/>
<path d="M74.619 285.052V284.169L78.3212 280.597C78.6502 280.285 78.8927 280.012 79.0486 279.778C79.2131 279.536 79.3214 279.315 79.3734 279.116C79.434 278.908 79.4643 278.709 79.4643 278.518C79.4643 278.051 79.2997 277.683 78.9707 277.414C78.6416 277.146 78.161 277.011 77.5288 277.011C77.0438 277.011 76.6065 277.094 76.2168 277.258C75.8271 277.414 75.4893 277.661 75.2035 277.999L74.3202 277.232C74.6666 276.791 75.1299 276.453 75.7102 276.219C76.299 275.977 76.9442 275.855 77.6457 275.855C78.2779 275.855 78.8278 275.959 79.2954 276.167C79.7631 276.366 80.1225 276.656 80.3736 277.037C80.6334 277.418 80.7633 277.869 80.7633 278.388C80.7633 278.683 80.7243 278.973 80.6464 279.259C80.5684 279.544 80.4212 279.848 80.2047 280.168C79.9882 280.488 79.6765 280.848 79.2694 281.246L75.97 284.429L75.6582 283.922H81.153V285.052H74.619ZM85.1568 285.156C84.5159 285.156 83.8924 285.057 83.2862 284.857C82.6887 284.658 82.1994 284.39 81.8183 284.052L82.4159 283.026C82.719 283.312 83.113 283.545 83.598 283.727C84.0829 283.909 84.5982 284 85.1438 284C85.8366 284 86.3692 283.853 86.7416 283.558C87.114 283.264 87.3002 282.87 87.3002 282.376C87.3002 282.039 87.2179 281.744 87.0533 281.493C86.8888 281.242 86.603 281.051 86.196 280.921C85.7976 280.783 85.2477 280.714 84.5463 280.714H82.4808L82.9615 275.959H88.0925V277.089H83.4421L84.1176 276.453L83.7409 280.207L83.0654 279.583H84.819C85.7284 279.583 86.4601 279.7 87.0144 279.934C87.5686 280.168 87.9713 280.493 88.2225 280.908C88.4736 281.315 88.5992 281.787 88.5992 282.324C88.5992 282.844 88.4736 283.32 88.2225 283.753C87.9713 284.178 87.5903 284.52 87.0793 284.779C86.577 285.031 85.9362 285.156 85.1568 285.156Z" fill="#6A6A6A"/>
<rect x="111.241" y="260.415" width="35.8303" height="58.9967" rx="10.5544" stroke="#505050" stroke-width="0.541254"/>
<path d="M123.899 295.143L125.081 295.337L125.629 301.539C125.673 302.046 126.118 302.435 126.652 302.433H132.851C133.361 302.434 133.794 302.077 133.866 301.597L134.405 298.052C134.465 297.656 134.176 297.288 133.76 297.231C133.724 297.226 125.271 297.223 125.271 297.223" stroke="#34C759" stroke-width="0.81188" stroke-linecap="round" stroke-linejoin="round"/>
<path d="M130.364 299.221H131.939" stroke="#34C759" stroke-width="0.81188" stroke-linecap="round" stroke-linejoin="round"/>
<path fill-rule="evenodd" clip-rule="evenodd" d="M126.402 304.307C126.573 304.307 126.711 304.439 126.711 304.601C126.711 304.764 126.573 304.896 126.402 304.896C126.231 304.896 126.093 304.764 126.093 304.601C126.093 304.439 126.231 304.307 126.402 304.307Z" fill="#34C759" stroke="#34C759" stroke-width="0.81188" stroke-linecap="round" stroke-linejoin="round"/>
<path fill-rule="evenodd" clip-rule="evenodd" d="M132.813 304.307C132.984 304.307 133.122 304.439 133.122 304.601C133.122 304.764 132.984 304.896 132.813 304.896C132.642 304.896 132.504 304.764 132.504 304.601C132.504 304.439 132.642 304.307 132.813 304.307Z" fill="#34C759" stroke="#34C759" stroke-width="0.81188" stroke-linecap="round" stroke-linejoin="round"/>
<path d="M122.084 285.052V284.169L125.786 280.597C126.115 280.285 126.357 280.012 126.513 279.778C126.678 279.536 126.786 279.315 126.838 279.116C126.899 278.908 126.929 278.709 126.929 278.518C126.929 278.051 126.764 277.683 126.435 277.414C126.106 277.146 125.626 277.011 124.993 277.011C124.508 277.011 124.071 277.094 123.681 277.258C123.292 277.414 122.954 277.661 122.668 277.999L121.785 277.232C122.131 276.791 122.594 276.453 123.175 276.219C123.764 275.977 124.409 275.855 125.11 275.855C125.742 275.855 126.292 275.959 126.76 276.167C127.228 276.366 127.587 276.656 127.838 277.037C128.098 277.418 128.228 277.869 128.228 278.388C128.228 278.683 128.189 278.973 128.111 279.259C128.033 279.544 127.886 279.848 127.669 280.168C127.453 280.488 127.141 280.848 126.734 281.246L123.435 284.429L123.123 283.922H128.618V285.052H122.084ZM133.492 285.156C132.687 285.156 131.998 284.979 131.427 284.624C130.855 284.269 130.418 283.758 130.115 283.091C129.82 282.415 129.673 281.593 129.673 280.623C129.673 279.592 129.855 278.722 130.218 278.012C130.582 277.301 131.089 276.765 131.738 276.401C132.388 276.037 133.133 275.855 133.973 275.855C134.406 275.855 134.817 275.899 135.207 275.985C135.605 276.072 135.947 276.206 136.233 276.388L135.739 277.401C135.505 277.237 135.237 277.124 134.934 277.063C134.639 277.003 134.328 276.972 133.999 276.972C133.072 276.972 132.336 277.263 131.79 277.843C131.245 278.414 130.972 279.267 130.972 280.402C130.972 280.584 130.981 280.8 130.998 281.051C131.015 281.302 131.059 281.549 131.128 281.792L130.686 281.35C130.816 280.952 131.02 280.618 131.297 280.35C131.582 280.073 131.92 279.869 132.31 279.739C132.708 279.601 133.137 279.531 133.596 279.531C134.202 279.531 134.739 279.644 135.207 279.869C135.674 280.094 136.042 280.415 136.311 280.83C136.579 281.237 136.714 281.722 136.714 282.285C136.714 282.866 136.571 283.372 136.285 283.805C135.999 284.238 135.614 284.572 135.129 284.805C134.644 285.039 134.098 285.156 133.492 285.156ZM133.44 284.104C133.838 284.104 134.185 284.03 134.479 283.883C134.782 283.736 135.02 283.532 135.194 283.273C135.367 283.004 135.453 282.692 135.453 282.337C135.453 281.8 135.267 281.376 134.895 281.064C134.523 280.744 134.016 280.584 133.375 280.584C132.959 280.584 132.596 280.662 132.284 280.817C131.972 280.973 131.725 281.186 131.543 281.454C131.37 281.714 131.284 282.013 131.284 282.35C131.284 282.662 131.366 282.952 131.53 283.221C131.695 283.48 131.938 283.693 132.258 283.857C132.578 284.022 132.972 284.104 133.44 284.104Z" fill="#6A6A6A"/>
<rect x="158.979" y="260.415" width="35.8303" height="58.9967" rx="10.5544" stroke="#505050" stroke-width="0.541254"/>
<path d="M171.637 295.143L172.819 295.337L173.366 301.539C173.41 302.046 173.855 302.435 174.389 302.433H180.589C181.098 302.434 181.531 302.077 181.603 301.597L182.142 298.052C182.203 297.656 181.913 297.288 181.497 297.231C181.461 297.226 173.009 297.223 173.009 297.223" stroke="#34C759" stroke-width="0.81188" stroke-linecap="round" stroke-linejoin="round"/>
<path d="M178.101 299.222H179.677" stroke="#34C759" stroke-width="0.81188" stroke-linecap="round" stroke-linejoin="round"/>
<path fill-rule="evenodd" clip-rule="evenodd" d="M174.139 304.307C174.31 304.307 174.448 304.439 174.448 304.601C174.448 304.764 174.31 304.896 174.139 304.896C173.968 304.896 173.83 304.764 173.83 304.601C173.83 304.439 173.968 304.307 174.139 304.307Z" fill="#34C759" stroke="#34C759" stroke-width="0.81188" stroke-linecap="round" stroke-linejoin="round"/>
<path fill-rule="evenodd" clip-rule="evenodd" d="M180.55 304.307C180.721 304.307 180.859 304.439 180.859 304.601C180.859 304.764 180.721 304.896 180.55 304.896C180.379 304.896 180.241 304.764 180.241 304.601C180.241 304.439 180.379 304.307 180.55 304.307Z" fill="#34C759" stroke="#34C759" stroke-width="0.81188" stroke-linecap="round" stroke-linejoin="round"/>
<path d="M169.948 285.052V284.169L173.65 280.597C173.979 280.285 174.222 280.012 174.378 279.778C174.542 279.536 174.651 279.315 174.703 279.116C174.763 278.908 174.794 278.709 174.794 278.518C174.794 278.051 174.629 277.683 174.3 277.414C173.971 277.146 173.49 277.011 172.858 277.011C172.373 277.011 171.936 277.094 171.546 277.258C171.156 277.414 170.819 277.661 170.533 277.999L169.649 277.232C169.996 276.791 170.459 276.453 171.039 276.219C171.628 275.977 172.273 275.855 172.975 275.855C173.607 275.855 174.157 275.959 174.625 276.167C175.092 276.366 175.452 276.656 175.703 277.037C175.963 277.418 176.093 277.869 176.093 278.388C176.093 278.683 176.054 278.973 175.976 279.259C175.898 279.544 175.75 279.848 175.534 280.168C175.317 280.488 175.006 280.848 174.599 281.246L171.299 284.429L170.987 283.922H176.482V285.052H169.948ZM179.109 285.052L182.967 276.505L183.305 277.089H177.901L178.551 276.453V278.713H177.304V275.959H184.163V276.843L180.486 285.052H179.109Z" fill="#6A6A6A"/>
<rect x="206.717" y="260.415" width="35.8303" height="58.9967" rx="10.5544" stroke="#505050" stroke-width="0.541254"/>
<path d="M219.375 295.142L220.557 295.337L221.104 301.539C221.148 302.046 221.593 302.435 222.127 302.433H228.327C228.836 302.434 229.269 302.077 229.341 301.597L229.88 298.052C229.941 297.656 229.651 297.288 229.235 297.231C229.199 297.226 220.747 297.223 220.747 297.223" stroke="#34C759" stroke-width="0.81188" stroke-linecap="round" stroke-linejoin="round"/>
<path d="M225.84 299.221H227.415" stroke="#34C759" stroke-width="0.81188" stroke-linecap="round" stroke-linejoin="round"/>
<path fill-rule="evenodd" clip-rule="evenodd" d="M221.878 304.307C222.049 304.307 222.187 304.439 222.187 304.601C222.187 304.764 222.049 304.896 221.878 304.896C221.707 304.896 221.569 304.764 221.569 304.601C221.569 304.439 221.707 304.307 221.878 304.307Z" fill="#34C759" stroke="#34C759" stroke-width="0.81188" stroke-linecap="round" stroke-linejoin="round"/>
<path fill-rule="evenodd" clip-rule="evenodd" d="M228.288 304.307C228.459 304.307 228.598 304.439 228.598 304.601C228.598 304.764 228.459 304.896 228.288 304.896C228.117 304.896 227.979 304.764 227.979 304.601C227.979 304.439 228.117 304.307 228.288 304.307Z" fill="#34C759" stroke="#34C759" stroke-width="0.81188" stroke-linecap="round" stroke-linejoin="round"/>
<path d="M217.292 285.052V284.169L220.994 280.597C221.323 280.285 221.565 280.012 221.721 279.778C221.886 279.536 221.994 279.315 222.046 279.116C222.107 278.908 222.137 278.709 222.137 278.518C222.137 278.051 221.972 277.683 221.643 277.414C221.314 277.146 220.834 277.011 220.201 277.011C219.717 277.011 219.279 277.094 218.889 277.258C218.5 277.414 218.162 277.661 217.876 277.999L216.993 277.232C217.339 276.791 217.803 276.453 218.383 276.219C218.972 275.977 219.617 275.855 220.318 275.855C220.951 275.855 221.5 275.959 221.968 276.167C222.436 276.366 222.795 276.656 223.046 277.037C223.306 277.418 223.436 277.869 223.436 278.388C223.436 278.683 223.397 278.973 223.319 279.259C223.241 279.544 223.094 279.848 222.877 280.168C222.661 280.488 222.349 280.848 221.942 281.246L218.643 284.429L218.331 283.922H223.826V285.052H217.292ZM228.44 285.156C227.704 285.156 227.067 285.048 226.53 284.831C225.994 284.615 225.578 284.307 225.283 283.909C224.989 283.502 224.842 283.026 224.842 282.48C224.842 281.943 224.98 281.489 225.257 281.116C225.543 280.735 225.955 280.449 226.492 280.259C227.028 280.06 227.678 279.96 228.44 279.96C229.202 279.96 229.852 280.06 230.389 280.259C230.934 280.449 231.35 280.735 231.636 281.116C231.921 281.497 232.064 281.952 232.064 282.48C232.064 283.026 231.917 283.502 231.623 283.909C231.328 284.307 230.908 284.615 230.363 284.831C229.817 285.048 229.176 285.156 228.44 285.156ZM228.44 284.104C229.167 284.104 229.735 283.957 230.142 283.662C230.557 283.359 230.765 282.952 230.765 282.441C230.765 281.939 230.557 281.545 230.142 281.259C229.735 280.965 229.167 280.817 228.44 280.817C227.721 280.817 227.158 280.965 226.751 281.259C226.344 281.545 226.141 281.939 226.141 282.441C226.141 282.952 226.344 283.359 226.751 283.662C227.158 283.957 227.721 284.104 228.44 284.104ZM228.44 280.662C227.747 280.662 227.158 280.571 226.673 280.389C226.188 280.198 225.816 279.93 225.556 279.583C225.296 279.228 225.167 278.808 225.167 278.323C225.167 277.812 225.301 277.375 225.569 277.011C225.846 276.639 226.232 276.353 226.725 276.154C227.219 275.955 227.791 275.855 228.44 275.855C229.098 275.855 229.674 275.955 230.168 276.154C230.661 276.353 231.047 276.639 231.324 277.011C231.601 277.375 231.74 277.812 231.74 278.323C231.74 278.808 231.61 279.228 231.35 279.583C231.09 279.93 230.713 280.198 230.22 280.389C229.726 280.571 229.133 280.662 228.44 280.662ZM228.44 279.83C229.072 279.83 229.566 279.7 229.921 279.441C230.285 279.181 230.466 278.826 230.466 278.375C230.466 277.916 230.28 277.557 229.908 277.297C229.536 277.037 229.046 276.907 228.44 276.907C227.834 276.907 227.349 277.037 226.985 277.297C226.63 277.557 226.453 277.916 226.453 278.375C226.453 278.826 226.626 279.181 226.972 279.441C227.327 279.7 227.817 279.83 228.44 279.83Z" fill="#6A6A6A"/>
<rect x="111.603" y="57.4755" width="35.9182" height="58.7053" rx="10.5544" fill="#6A6A6A" stroke="#505050" stroke-width="0.541254"/>
<rect x="159.001" y="57.4755" width="35.9182" height="58.7053" rx="10.5544" fill="#6A6A6A" stroke="#505050" stroke-width="0.541254"/>
<rect x="254.707" y="57.4755" width="35.9182" height="58.7053" rx="10.5544" fill="#6A6A6A" stroke="#505050" stroke-width="0.541254"/>
<rect x="206.398" y="57.4755" width="35.9182" height="58.7053" rx="10.5544" fill="#6A6A6A" stroke="#505050" stroke-width="0.541254"/>
<rect x="302.104" y="57.4755" width="35.9182" height="58.7053" rx="10.5544" fill="#6A6A6A" stroke="#505050" stroke-width="0.541254"/>
<rect x="15.8973" y="57.4755" width="36.8297" height="58.7053" rx="10.5544" fill="#5ED84B" stroke="#4AB03A" stroke-width="0.541254"/>
<path d="M27.8421 75.4083V67.8307H34.218V75.4083H33.4278V68.307L33.6335 68.5235H28.4266L28.6323 68.307V75.4083H27.8421ZM36.5908 75.4083V69.7251H37.3594V72.2365H40.9425V69.7251H41.7111V75.4083H40.9425V72.8969H37.3594V75.4083H36.5908Z" fill="white"/>
<path d="M125.949 75.4732C125.379 75.4732 124.852 75.3794 124.369 75.1918C123.885 74.9969 123.466 74.7263 123.113 74.3799C122.759 74.0335 122.481 73.6258 122.279 73.1567C122.084 72.6876 121.987 72.1752 121.987 71.6195C121.987 71.0638 122.084 70.5514 122.279 70.0824C122.481 69.6133 122.759 69.2055 123.113 68.8591C123.474 68.5127 123.896 68.2457 124.379 68.0581C124.863 67.8632 125.39 67.7658 125.96 67.7658C126.508 67.7658 127.024 67.8596 127.508 68.0472C127.991 68.2277 128.399 68.5019 128.731 68.87L128.222 69.3787C127.912 69.0612 127.569 68.8339 127.194 68.6968C126.819 68.5524 126.414 68.4802 125.981 68.4802C125.527 68.4802 125.105 68.5596 124.715 68.7184C124.325 68.87 123.986 69.0901 123.697 69.3787C123.409 69.6602 123.181 69.9922 123.015 70.3746C122.857 70.7499 122.777 71.1649 122.777 71.6195C122.777 72.0742 122.857 72.4927 123.015 72.8752C123.181 73.2505 123.409 73.5825 123.697 73.8711C123.986 74.1526 124.325 74.3727 124.715 74.5315C125.105 74.683 125.527 74.7588 125.981 74.7588C126.414 74.7588 126.819 74.6866 127.194 74.5423C127.569 74.398 127.912 74.167 128.222 73.8495L128.731 74.3583C128.399 74.7263 127.991 75.0042 127.508 75.1918C127.024 75.3794 126.505 75.4732 125.949 75.4732ZM133.135 75.4624C132.644 75.4624 132.2 75.3506 131.803 75.1268C131.406 74.8959 131.089 74.5675 130.851 74.1418C130.62 73.7088 130.504 73.1819 130.504 72.5613C130.504 71.9407 130.62 71.4175 130.851 70.9917C131.082 70.5587 131.396 70.2303 131.793 70.0066C132.189 69.7829 132.637 69.671 133.135 69.671C133.676 69.671 134.16 69.7937 134.585 70.0391C135.018 70.2772 135.358 70.6164 135.603 71.0566C135.848 71.4896 135.971 71.9912 135.971 72.5613C135.971 73.1386 135.848 73.6438 135.603 74.0768C135.358 74.5098 135.018 74.849 134.585 75.0944C134.16 75.3397 133.676 75.4624 133.135 75.4624ZM130.201 77.5084V69.7251H130.937V71.4355L130.862 72.5721L130.97 73.7196V77.5084H130.201ZM133.081 74.7804C133.485 74.7804 133.846 74.6902 134.163 74.5098C134.481 74.3222 134.733 74.0624 134.921 73.7304C135.109 73.3912 135.202 73.0015 135.202 72.5613C135.202 72.1211 135.109 71.735 134.921 71.403C134.733 71.071 134.481 70.8112 134.163 70.6236C133.846 70.436 133.485 70.3422 133.081 70.3422C132.677 70.3422 132.312 70.436 131.987 70.6236C131.67 70.8112 131.417 71.071 131.23 71.403C131.049 71.735 130.959 72.1211 130.959 72.5613C130.959 73.0015 131.049 73.3912 131.23 73.7304C131.417 74.0624 131.67 74.3222 131.987 74.5098C132.312 74.6902 132.677 74.7804 133.081 74.7804Z" fill="white"/>
<path d="M176.429 72.2041C175.996 72.3989 175.563 72.5469 175.13 72.6479C174.704 72.7489 174.293 72.7995 173.896 72.7995C173.008 72.7995 172.315 72.5866 171.817 72.1608C171.327 71.7278 171.081 71.118 171.081 70.3313V67.8307H171.872V70.2447C171.872 70.8293 172.056 71.2839 172.424 71.6087C172.799 71.9334 173.315 72.0958 173.972 72.0958C174.361 72.0958 174.765 72.0453 175.184 71.9443C175.603 71.836 176.018 71.6845 176.429 71.4896V72.2041ZM176.288 75.4083V67.8307H177.068V75.4083H176.288ZM180.536 75.4083V70.1906L180.731 70.3963H178.382V69.7251H183.459V70.3963H181.11L181.305 70.1906V75.4083H180.536Z" fill="white"/>
<path d="M268.981 75.4732C268.411 75.4732 267.884 75.3794 267.401 75.1918C266.917 74.9969 266.499 74.7263 266.145 74.3799C265.791 74.0335 265.514 73.6258 265.312 73.1567C265.117 72.6876 265.019 72.1752 265.019 71.6195C265.019 71.0638 265.117 70.5514 265.312 70.0824C265.514 69.6133 265.791 69.2055 266.145 68.8591C266.506 68.5127 266.928 68.2457 267.412 68.0581C267.895 67.8632 268.422 67.7658 268.992 67.7658C269.541 67.7658 270.057 67.8596 270.54 68.0472C271.024 68.2277 271.431 68.5019 271.763 68.87L271.255 69.3787C270.944 69.0612 270.601 68.8339 270.226 68.6968C269.851 68.5524 269.447 68.4802 269.014 68.4802C268.559 68.4802 268.137 68.5596 267.747 68.7184C267.358 68.87 267.018 69.0901 266.73 69.3787C266.441 69.6602 266.214 69.9922 266.048 70.3746C265.889 70.7499 265.81 71.1649 265.81 71.6195C265.81 72.0742 265.889 72.4927 266.048 72.8752C266.214 73.2505 266.441 73.5825 266.73 73.8711C267.018 74.1526 267.358 74.3727 267.747 74.5315C268.137 74.683 268.559 74.7588 269.014 74.7588C269.447 74.7588 269.851 74.6866 270.226 74.5423C270.601 74.398 270.944 74.167 271.255 73.8495L271.763 74.3583C271.431 74.7263 271.024 75.0042 270.54 75.1918C270.057 75.3794 269.537 75.4732 268.981 75.4732ZM275.63 75.4732C275.168 75.4732 274.757 75.3975 274.396 75.2459C274.042 75.0944 273.739 74.8634 273.486 74.5531C273.234 74.2428 273.043 73.8603 272.913 73.4057C272.783 72.9438 272.718 72.4098 272.718 71.8035C272.718 71.2623 272.768 70.7896 272.869 70.3855C272.97 69.9741 273.111 69.6205 273.292 69.3246C273.472 69.0287 273.681 68.7797 273.919 68.5777C274.165 68.3684 274.428 68.2024 274.71 68.0797C274.998 67.9498 275.294 67.8524 275.597 67.7874L278.152 67.1921L278.282 67.9065L275.879 68.4478C275.727 68.4839 275.543 68.5344 275.327 68.5993C275.117 68.6643 274.901 68.7617 274.677 68.8916C274.461 69.0215 274.259 69.2019 274.071 69.4329C273.883 69.6638 273.732 69.9633 273.616 70.3313C273.508 70.6922 273.454 71.1432 273.454 71.6845C273.454 71.7999 273.458 71.8938 273.465 71.9659C273.472 72.0309 273.479 72.103 273.486 72.1824C273.501 72.2546 273.512 72.3628 273.519 72.5072L273.183 72.2257C273.263 71.7855 273.425 71.403 273.67 71.0783C273.916 70.7463 274.222 70.4901 274.591 70.3097C274.966 70.1221 275.381 70.0282 275.835 70.0282C276.362 70.0282 276.831 70.1437 277.243 70.3746C277.654 70.5984 277.975 70.9123 278.206 71.3164C278.444 71.7206 278.563 72.1896 278.563 72.7237C278.563 73.2505 278.441 73.7232 278.195 74.1418C277.957 74.5603 277.618 74.8887 277.178 75.1268C276.737 75.3578 276.222 75.4732 275.63 75.4732ZM275.716 74.8346C276.12 74.8346 276.478 74.7444 276.788 74.5639C277.098 74.3763 277.34 74.1237 277.513 73.8062C277.694 73.4886 277.784 73.1314 277.784 72.7345C277.784 72.3448 277.694 71.9984 277.513 71.6953C277.34 71.3922 277.098 71.154 276.788 70.9808C276.478 70.8004 276.117 70.7102 275.706 70.7102C275.301 70.7102 274.944 70.7968 274.634 70.97C274.324 71.136 274.078 71.3705 273.898 71.6736C273.725 71.9767 273.638 72.3268 273.638 72.7237C273.638 73.1206 273.725 73.4778 273.898 73.7954C274.078 74.1129 274.324 74.3655 274.634 74.5531C274.951 74.7407 275.312 74.8346 275.716 74.8346Z" fill="white"/>
<path d="M218.61 75.4083V67.8307H224.986V75.4083H224.196V68.307L224.401 68.5235H219.194L219.4 68.307V75.4083H218.61ZM228.441 75.4083V70.1906L228.636 70.3963H226.287V69.7251H231.364V70.3963H229.015L229.21 70.1906V75.4083H228.441Z" fill="white"/>
<path d="M313.781 75.4083V67.8307H316.931C317.732 67.8307 318.36 67.9967 318.815 68.3287C319.276 68.6535 319.507 69.1334 319.507 69.7684C319.507 70.3963 319.287 70.8726 318.847 71.1973C318.407 71.5149 317.829 71.6736 317.115 71.6736L317.299 71.403C318.143 71.403 318.786 71.569 319.226 71.901C319.666 72.2329 319.886 72.7201 319.886 73.3624C319.886 74.0119 319.655 74.517 319.193 74.8779C318.739 75.2315 318.053 75.4083 317.137 75.4083H313.781ZM314.571 74.7696H317.137C317.779 74.7696 318.266 74.6505 318.598 74.4124C318.93 74.1742 319.096 73.8062 319.096 73.3082C319.096 72.8175 318.93 72.4567 318.598 72.2257C318.266 71.9948 317.779 71.8793 317.137 71.8793H314.571V74.7696ZM314.571 71.2623H316.888C317.472 71.2623 317.92 71.1468 318.23 70.9159C318.548 70.6777 318.706 70.3277 318.706 69.8659C318.706 69.404 318.548 69.0576 318.23 68.8267C317.92 68.5885 317.472 68.4694 316.888 68.4694H314.571V71.2623ZM324.087 75.4624C323.524 75.4624 323.019 75.3397 322.571 75.0944C322.131 74.8418 321.784 74.499 321.532 74.066C321.279 73.6258 321.153 73.1242 321.153 72.5613C321.153 71.9912 321.279 71.4896 321.532 71.0566C321.784 70.6236 322.131 70.2844 322.571 70.0391C323.019 69.7937 323.524 69.671 324.087 69.671C324.57 69.671 325.007 69.7648 325.396 69.9525C325.786 70.1401 326.093 70.4215 326.317 70.7968L325.743 71.1865C325.548 70.8978 325.306 70.685 325.018 70.5478C324.729 70.4107 324.415 70.3422 324.076 70.3422C323.672 70.3422 323.307 70.436 322.982 70.6236C322.658 70.804 322.402 71.0602 322.214 71.3922C322.026 71.7242 321.932 72.1139 321.932 72.5613C321.932 73.0087 322.026 73.3984 322.214 73.7304C322.402 74.0624 322.658 74.3222 322.982 74.5098C323.307 74.6902 323.672 74.7804 324.076 74.7804C324.415 74.7804 324.729 74.7119 325.018 74.5748C325.306 74.4376 325.548 74.2284 325.743 73.9469L326.317 74.3366C326.093 74.7047 325.786 74.9861 325.396 75.181C325.007 75.3686 324.57 75.4624 324.087 75.4624Z" fill="white"/>
<path d="M33.3627 85.6181C34.1854 85.6181 34.8782 85.7956 35.4411 86.1506C36.0127 86.5057 36.4457 87.021 36.7401 87.6965C37.0346 88.3633 37.1818 89.1817 37.1818 90.1516C37.1818 91.1821 36.9999 92.0525 36.6362 92.7626C36.2725 93.4727 35.7702 94.0096 35.1293 94.3734C34.4885 94.7371 33.7394 94.919 32.8821 94.919C32.4577 94.919 32.0464 94.8757 31.648 94.7891C31.2583 94.7025 30.9162 94.5682 30.6218 94.3864L31.1154 93.3731C31.3579 93.529 31.6263 93.6416 31.9208 93.7109C32.2239 93.7715 32.54 93.8018 32.8691 93.8018C33.787 93.8018 34.5188 93.516 35.0644 92.9445C35.61 92.3642 35.8828 91.5069 35.8828 90.3724C35.8828 90.1906 35.8741 89.9741 35.8568 89.7229C35.8395 89.4718 35.8005 89.225 35.7399 88.9825L36.1685 89.4241C36.0473 89.8225 35.8438 90.1603 35.558 90.4374C35.2809 90.7058 34.9431 90.9093 34.5448 91.0479C34.1551 91.1778 33.7264 91.2428 33.2588 91.2428C32.6612 91.2428 32.1286 91.1302 31.661 90.905C31.1933 90.6799 30.8253 90.3638 30.5568 89.9567C30.2884 89.5411 30.1541 89.0518 30.1541 88.4889C30.1541 87.9 30.2927 87.3934 30.5698 86.969C30.8556 86.536 31.241 86.2026 31.7259 85.9688C32.2196 85.735 32.7651 85.6181 33.3627 85.6181ZM33.4146 86.6702C33.0249 86.6702 32.6785 86.7439 32.3754 86.8911C32.0723 87.0383 31.8342 87.2418 31.661 87.5016C31.4964 87.7614 31.4142 88.0732 31.4142 88.4369C31.4142 88.9738 31.6004 89.4025 31.9727 89.7229C32.3451 90.0347 32.8474 90.1906 33.4796 90.1906C33.8953 90.1906 34.259 90.1126 34.5708 89.9567C34.8912 89.8009 35.138 89.5887 35.3112 89.3202C35.4931 89.0518 35.584 88.753 35.584 88.4239C35.584 88.1035 35.5017 87.8134 35.3372 87.5536C35.1726 87.2938 34.9302 87.0816 34.6097 86.9171C34.2893 86.7525 33.891 86.6702 33.4146 86.6702Z" fill="white"/>
<path d="M126.455 107.576V99.0024L127.014 99.6129H124.403V98.4828H127.741V107.576H126.455ZM131.263 107.576V99.0024L131.822 99.6129H129.211V98.4828H132.549V107.576H131.263Z" fill="white"/>
<path d="M172.527 107.576V99.0024L173.086 99.6129H170.475V98.4828H173.813V107.576H172.527ZM175.659 107.576V106.693L179.361 103.12C179.69 102.808 179.933 102.536 180.089 102.302C180.253 102.059 180.362 101.839 180.413 101.639C180.474 101.432 180.504 101.232 180.504 101.042C180.504 100.574 180.34 100.206 180.011 99.9377C179.682 99.6692 179.201 99.535 178.569 99.535C178.084 99.535 177.647 99.6172 177.257 99.7818C176.867 99.9377 176.529 100.184 176.244 100.522L175.36 99.7558C175.707 99.3141 176.17 98.9764 176.75 98.7426C177.339 98.5001 177.984 98.3789 178.686 98.3789C179.318 98.3789 179.868 98.4828 180.336 98.6906C180.803 98.8898 181.163 99.1799 181.414 99.561C181.674 99.942 181.803 100.392 181.803 100.912C181.803 101.206 181.764 101.496 181.686 101.782C181.609 102.068 181.461 102.371 181.245 102.692C181.028 103.012 180.717 103.371 180.31 103.77L177.01 106.952L176.698 106.446H182.193V107.576H175.659Z" fill="white"/>
<path d="M267.618 107.576V99.0024L268.176 99.6129H265.565V98.4828H268.904V107.576H267.618ZM270.763 105.342V104.432L275.413 98.4828H276.816L272.205 104.432L271.542 104.224H278.804V105.342H270.763ZM275.816 107.576V105.342L275.855 104.224V102.25H277.076V107.576H275.816Z" fill="white"/>
<path d="M220.848 107.576V99.0024L221.407 99.6129H218.796V98.4828H222.134V107.576H220.848ZM226.903 107.68C226.262 107.68 225.639 107.58 225.033 107.381C224.435 107.182 223.946 106.913 223.565 106.576L224.162 105.549C224.465 105.835 224.859 106.069 225.344 106.251C225.829 106.433 226.349 106.524 226.903 106.524C227.579 106.524 228.103 106.381 228.475 106.095C228.856 105.801 229.047 105.406 229.047 104.913C229.047 104.437 228.865 104.056 228.501 103.77C228.146 103.475 227.579 103.328 226.799 103.328H226.072V102.419L228.774 99.0933L228.956 99.6129H223.98V98.4828H229.982V99.3661L227.293 102.679L226.617 102.276H227.046C228.146 102.276 228.969 102.523 229.514 103.016C230.068 103.51 230.346 104.138 230.346 104.9C230.346 105.411 230.22 105.878 229.969 106.303C229.718 106.727 229.337 107.065 228.826 107.316C228.323 107.559 227.683 107.68 226.903 107.68Z" fill="white"/>
<path d="M316.542 107.576V99.0024L317.1 99.6129H314.489V98.4828H317.828V107.576H316.542ZM322.752 107.68C322.112 107.68 321.488 107.58 320.882 107.381C320.284 107.182 319.795 106.913 319.414 106.576L320.011 105.549C320.315 105.835 320.709 106.069 321.194 106.251C321.679 106.433 322.194 106.524 322.739 106.524C323.432 106.524 323.965 106.376 324.337 106.082C324.71 105.788 324.896 105.394 324.896 104.9C324.896 104.562 324.813 104.268 324.649 104.017C324.484 103.765 324.199 103.575 323.792 103.445C323.393 103.306 322.843 103.237 322.142 103.237H320.076L320.557 98.4828H325.688V99.6129H321.038L321.713 98.9764L321.336 102.731L320.661 102.107H322.415C323.324 102.107 324.056 102.224 324.61 102.458C325.164 102.692 325.567 103.016 325.818 103.432C326.069 103.839 326.195 104.311 326.195 104.848C326.195 105.368 326.069 105.844 325.818 106.277C325.567 106.701 325.186 107.043 324.675 107.303C324.173 107.554 323.532 107.68 322.752 107.68Z" fill="white"/>
<g style="mix-blend-mode:color-dodge">
<path d="M33.8564 79.0806V81.815" stroke="#B6B6B6" stroke-width="0.541254"/>
</g>
<rect x="63.5035" y="57.4452" width="35.8303" height="58.9967" rx="10.5544" fill="#7D7D7D" stroke="#505050" stroke-width="0.541254"/>
<path d="M76.4448 75.8346V68.2571H79.5949C80.396 68.2571 81.0238 68.4231 81.4785 68.755C81.9404 69.0798 82.1713 69.5597 82.1713 70.1948C82.1713 70.8226 81.9512 71.2989 81.511 71.6237C81.0708 71.9412 80.4934 72.1 79.779 72.1L79.963 71.8293C80.8073 71.8293 81.4496 71.9953 81.8898 72.3273C82.3301 72.6593 82.5502 73.1464 82.5502 73.7887C82.5502 74.4382 82.3192 74.9434 81.8574 75.3042C81.4027 75.6578 80.7171 75.8346 79.8006 75.8346H76.4448ZM77.2351 75.1959H79.8006C80.4429 75.1959 80.93 75.0769 81.262 74.8387C81.594 74.6006 81.7599 74.2325 81.7599 73.7346C81.7599 73.2438 81.594 72.883 81.262 72.6521C80.93 72.4211 80.4429 72.3057 79.8006 72.3057H77.2351V75.1959ZM77.2351 71.6886H79.5516C80.1362 71.6886 80.5836 71.5732 80.8939 71.3422C81.2115 71.1041 81.3702 70.7541 81.3702 70.2922C81.3702 69.8303 81.2115 69.4839 80.8939 69.253C80.5836 69.0148 80.1362 68.8958 79.5516 68.8958H77.2351V71.6886ZM85.4516 75.8346V70.6169L85.6464 70.8226H83.2974V70.1515H88.3743V70.8226H86.0253L86.2201 70.6169V75.8346H85.4516Z" fill="white"/>
<path d="M77.1972 107.521V98.9476L77.7558 99.5581H75.1448V98.428H78.4832V107.521H77.1972ZM84.1874 107.625C83.4773 107.625 82.8408 107.443 82.2779 107.079C81.7236 106.716 81.282 106.187 80.9529 105.495C80.6325 104.802 80.4722 103.962 80.4722 102.975C80.4722 101.987 80.6325 101.147 80.9529 100.454C81.282 99.7616 81.7236 99.2334 82.2779 98.8697C82.8408 98.5059 83.4773 98.3241 84.1874 98.3241C84.8889 98.3241 85.5211 98.5059 86.084 98.8697C86.6469 99.2334 87.0885 99.7616 87.409 100.454C87.7294 101.147 87.8896 101.987 87.8896 102.975C87.8896 103.962 87.7294 104.802 87.409 105.495C87.0885 106.187 86.6469 106.716 86.084 107.079C85.5211 107.443 84.8889 107.625 84.1874 107.625ZM84.1874 106.469C84.6637 106.469 85.0794 106.339 85.4345 106.079C85.7982 105.819 86.0796 105.43 86.2788 104.91C86.4867 104.39 86.5906 103.745 86.5906 102.975C86.5906 102.204 86.4867 101.559 86.2788 101.039C86.0796 100.519 85.7982 100.13 85.4345 99.8699C85.0794 99.6101 84.6637 99.4802 84.1874 99.4802C83.7111 99.4802 83.2911 99.6101 82.9274 99.8699C82.5637 100.13 82.2779 100.519 82.07 101.039C81.8708 101.559 81.7713 102.204 81.7713 102.975C81.7713 103.745 81.8708 104.39 82.07 104.91C82.2779 105.43 82.5637 105.819 82.9274 106.079C83.2911 106.339 83.7111 106.469 84.1874 106.469Z" fill="white"/>
<line x1="81.6893" y1="81.5311" x2="81.6893" y2="92.3561" stroke="#34C759" stroke-width="0.541254"/>
<line x1="129.833" y1="81.815" x2="129.833" y2="92.7529" stroke="#34C759" stroke-width="0.541254"/>
<line x1="177.23" y1="81.815" x2="177.23" y2="92.7529" stroke="#34C759" stroke-width="0.541254"/>
<line x1="272.936" y1="81.815" x2="272.936" y2="92.7529" stroke="#505050" stroke-width="0.541254"/>
<line x1="224.628" y1="81.815" x2="224.628" y2="92.7529" stroke="#34C759" stroke-width="0.541254"/>
<line x1="320.334" y1="81.815" x2="320.334" y2="92.7529" stroke="#505050" stroke-width="0.541254"/>
<rect x="0.455743" y="38.4891" width="360.037" height="303.525" rx="10.5443" stroke="#D9D9D9" stroke-width="0.911486"/>
<path d="M13.688 16.128C12.8347 16.128 12.0453 15.9893 11.32 15.712C10.6053 15.424 9.98133 15.024 9.448 14.512C8.92533 13.9893 8.51467 13.3813 8.216 12.688C7.91733 11.9947 7.768 11.232 7.768 10.4C7.768 9.568 7.91733 8.80533 8.216 8.112C8.51467 7.41867 8.93067 6.816 9.464 6.304C9.99733 5.78133 10.6213 5.38133 11.336 5.104C12.0613 4.816 12.8507 4.672 13.704 4.672C14.568 4.672 15.3627 4.82133 16.088 5.12C16.824 5.408 17.448 5.84 17.96 6.416L16.92 7.424C16.4933 6.976 16.0133 6.64533 15.48 6.432C14.9467 6.208 14.376 6.096 13.768 6.096C13.1387 6.096 12.552 6.20267 12.008 6.416C11.4747 6.62933 11.0107 6.928 10.616 7.312C10.2213 7.696 9.912 8.15467 9.688 8.688C9.47467 9.21067 9.368 9.78133 9.368 10.4C9.368 11.0187 9.47467 11.5947 9.688 12.128C9.912 12.6507 10.2213 13.104 10.616 13.488C11.0107 13.872 11.4747 14.1707 12.008 14.384C12.552 14.5973 13.1387 14.704 13.768 14.704C14.376 14.704 14.9467 14.5973 15.48 14.384C16.0133 14.16 16.4933 13.8187 16.92 13.36L17.96 14.368C17.448 14.944 16.824 15.3813 16.088 15.68C15.3627 15.9787 14.5627 16.128 13.688 16.128ZM25.1731 16V14.208L25.0931 13.872V10.816C25.0931 10.1653 24.9011 9.664 24.5171 9.312C24.1438 8.94933 23.5785 8.768 22.8211 8.768C22.3198 8.768 21.8291 8.85333 21.3491 9.024C20.8691 9.184 20.4638 9.40267 20.1331 9.68L19.4931 8.528C19.9305 8.176 20.4531 7.90933 21.0611 7.728C21.6798 7.536 22.3251 7.44 22.9971 7.44C24.1598 7.44 25.0558 7.72267 25.6851 8.288C26.3145 8.85333 26.6291 9.71733 26.6291 10.88V16H25.1731ZM22.3891 16.096C21.7598 16.096 21.2051 15.9893 20.7251 15.776C20.2558 15.5627 19.8931 15.2693 19.6371 14.896C19.3811 14.512 19.2531 14.08 19.2531 13.6C19.2531 13.1413 19.3598 12.7253 19.5731 12.352C19.7971 11.9787 20.1545 11.68 20.6451 11.456C21.1465 11.232 21.8185 11.12 22.6611 11.12H25.3491V12.224H22.7251C21.9571 12.224 21.4398 12.352 21.1731 12.608C20.9065 12.864 20.7731 13.1733 20.7731 13.536C20.7731 13.952 20.9385 14.288 21.2691 14.544C21.5998 14.7893 22.0585 14.912 22.6451 14.912C23.2211 14.912 23.7225 14.784 24.1491 14.528C24.5865 14.272 24.9011 13.8987 25.0931 13.408L25.3971 14.464C25.1945 14.9653 24.8371 15.3653 24.3251 15.664C23.8131 15.952 23.1678 16.096 22.3891 16.096ZM29.4716 16V4.128H31.0076V16H29.4716ZM37.7164 16.096C36.8097 16.096 36.0097 15.9093 35.3164 15.536C34.6337 15.1627 34.1004 14.6507 33.7164 14C33.343 13.3493 33.1564 12.6027 33.1564 11.76C33.1564 10.9173 33.3377 10.1707 33.7004 9.52C34.0737 8.86933 34.5804 8.36267 35.2204 8C35.871 7.62667 36.6017 7.44 37.4124 7.44C38.2337 7.44 38.959 7.62133 39.5884 7.984C40.2177 8.34667 40.7084 8.85867 41.0604 9.52C41.423 10.1707 41.6044 10.9333 41.6044 11.808C41.6044 11.872 41.599 11.9467 41.5884 12.032C41.5884 12.1173 41.583 12.1973 41.5724 12.272H34.3564V11.168H40.7724L40.1484 11.552C40.159 11.008 40.047 10.5227 39.8124 10.096C39.5777 9.66933 39.2524 9.33867 38.8364 9.104C38.431 8.85867 37.9564 8.736 37.4124 8.736C36.879 8.736 36.4044 8.85867 35.9884 9.104C35.5724 9.33867 35.247 9.67467 35.0124 10.112C34.7777 10.5387 34.6604 11.0293 34.6604 11.584V11.84C34.6604 12.4053 34.7884 12.912 35.0444 13.36C35.311 13.7973 35.679 14.1387 36.1484 14.384C36.6177 14.6293 37.1564 14.752 37.7644 14.752C38.2657 14.752 38.719 14.6667 39.1244 14.496C39.5404 14.3253 39.903 14.0693 40.2124 13.728L41.0604 14.72C40.6764 15.168 40.1964 15.5093 39.6204 15.744C39.055 15.9787 38.4204 16.096 37.7164 16.096ZM48.2653 7.44C48.9586 7.44 49.5666 7.57333 50.0893 7.84C50.6226 8.10667 51.0386 8.512 51.3373 9.056C51.6359 9.6 51.7853 10.288 51.7853 11.12V16H50.2493V11.296C50.2493 10.4747 50.0466 9.856 49.6413 9.44C49.2466 9.024 48.6866 8.816 47.9613 8.816C47.4173 8.816 46.9426 8.92267 46.5373 9.136C46.1319 9.34933 45.8173 9.664 45.5933 10.08C45.3799 10.496 45.2733 11.0133 45.2733 11.632V16H43.7373V7.52H45.2093V9.808L44.9693 9.2C45.2466 8.64533 45.6733 8.21333 46.2493 7.904C46.8253 7.59467 47.4973 7.44 48.2653 7.44ZM58.1319 16.096C57.3105 16.096 56.5745 15.9147 55.9239 15.552C55.2839 15.1893 54.7772 14.6827 54.4039 14.032C54.0305 13.3813 53.8439 12.624 53.8439 11.76C53.8439 10.896 54.0305 10.144 54.4039 9.504C54.7772 8.85333 55.2839 8.34667 55.9239 7.984C56.5745 7.62133 57.3105 7.44 58.1319 7.44C58.8465 7.44 59.4919 7.6 60.0679 7.92C60.6439 8.24 61.1025 8.72 61.4439 9.36C61.7959 10 61.9719 10.8 61.9719 11.76C61.9719 12.72 61.8012 13.52 61.4599 14.16C61.1292 14.8 60.6759 15.2853 60.0999 15.616C59.5239 15.936 58.8679 16.096 58.1319 16.096ZM58.2599 14.752C58.7932 14.752 59.2732 14.6293 59.6999 14.384C60.1372 14.1387 60.4785 13.792 60.7239 13.344C60.9799 12.8853 61.1079 12.3573 61.1079 11.76C61.1079 11.152 60.9799 10.6293 60.7239 10.192C60.4785 9.744 60.1372 9.39733 59.6999 9.152C59.2732 8.90667 58.7932 8.784 58.2599 8.784C57.7159 8.784 57.2305 8.90667 56.8039 9.152C56.3772 9.39733 56.0359 9.744 55.7799 10.192C55.5239 10.6293 55.3959 11.152 55.3959 11.76C55.3959 12.3573 55.5239 12.8853 55.7799 13.344C56.0359 13.792 56.3772 14.1387 56.8039 14.384C57.2305 14.6293 57.7159 14.752 58.2599 14.752ZM61.1559 16V13.712L61.2519 11.744L61.0919 9.776V4.128H62.6279V16H61.1559ZM70.7981 16V14.208L70.7181 13.872V10.816C70.7181 10.1653 70.5261 9.664 70.1421 9.312C69.7688 8.94933 69.2035 8.768 68.4461 8.768C67.9448 8.768 67.4541 8.85333 66.9741 9.024C66.4941 9.184 66.0888 9.40267 65.7581 9.68L65.1181 8.528C65.5555 8.176 66.0781 7.90933 66.6861 7.728C67.3048 7.536 67.9501 7.44 68.6221 7.44C69.7848 7.44 70.6808 7.72267 71.3101 8.288C71.9395 8.85333 72.2541 9.71733 72.2541 10.88V16H70.7981ZM68.0141 16.096C67.3848 16.096 66.8301 15.9893 66.3501 15.776C65.8808 15.5627 65.5181 15.2693 65.2621 14.896C65.0061 14.512 64.8781 14.08 64.8781 13.6C64.8781 13.1413 64.9848 12.7253 65.1981 12.352C65.4221 11.9787 65.7795 11.68 66.2701 11.456C66.7715 11.232 67.4435 11.12 68.2861 11.12H70.9741V12.224H68.3501C67.5821 12.224 67.0648 12.352 66.7981 12.608C66.5315 12.864 66.3981 13.1733 66.3981 13.536C66.3981 13.952 66.5635 14.288 66.8941 14.544C67.2248 14.7893 67.6835 14.912 68.2701 14.912C68.8461 14.912 69.3475 14.784 69.7741 14.528C70.2115 14.272 70.5261 13.8987 70.7181 13.408L71.0221 14.464C70.8195 14.9653 70.4621 15.3653 69.9501 15.664C69.4381 15.952 68.7928 16.096 68.0141 16.096ZM75.0966 16V7.52H76.5686V9.824L76.4246 9.248C76.6593 8.66133 77.054 8.21333 77.6086 7.904C78.1633 7.59467 78.846 7.44 79.6566 7.44V8.928C79.5926 8.91733 79.5286 8.912 79.4646 8.912C79.4113 8.912 79.358 8.912 79.3046 8.912C78.4833 8.912 77.8326 9.15733 77.3526 9.648C76.8726 10.1387 76.6326 10.848 76.6326 11.776V16H75.0966Z" fill="black"/>
</svg>
